<svg xmlns="http://www.w3.org/2000/svg" version="1.1" viewBox="-5.0 -10.0 110.0 110.0">
    <path
        d="m9.1289 68.129v-39.098c0-11.93 9.6836-21.613 21.609-21.613h39.102c11.926 0 21.609 9.6836 21.609 21.613v39.098c0 11.93-9.6836 21.613-21.609 21.613h-39.102c-11.926 0-21.609-9.6836-21.609-21.613zm4.125 0c0 9.6523 7.8359 17.488 17.484 17.488h39.102c9.6484 0 17.484-7.8359 17.484-17.488v-39.098c0-9.6523-7.8359-17.484-17.484-17.484h-39.102c-9.6484 0-17.484 7.832-17.484 17.484z"
        fill-rule="evenodd" />
    <path
        d="m87.324 68.129h4.125v6.2773c0 11.926-9.6836 21.613-21.609 21.613h-39.098c-11.93 0-21.613-9.6875-21.613-21.613v-6.2773c0-1.1367 0.92188-2.0625 2.0625-2.0625 1.1367 0 2.0625 0.92578 2.0625 2.0625 0 9.6523 7.8359 17.488 17.488 17.488h39.098c9.6484 0 17.484-7.8359 17.484-17.488z"
        fill-rule="evenodd" />
    <path
        d="m40.34 45.301 28.734-0.003906c0.88672 0.003906 1.7383 0.35547 2.3672 0.98047 0.62891 0.62891 0.98047 1.4805 0.98047 2.3672v0.003907c0 0.88672-0.35547 1.7422-0.98047 2.3672-0.62891 0.62891-1.4805 0.98047-2.3672 0.98047h-28.602l10.324 10.324c1.1055 1.1055 1.1055 2.8984 0 4.0039s-2.9023 1.1055-4.0039 0l-15.742-15.742c-1.1094-1.1055-1.1094-2.8984 0-4.0039l15.738-15.742c1.1094-1.1055 2.9023-1.1055 4.0078 0 1.1055 1.1055 1.1055 2.8984 0 4.0039z"
        fill-rule="evenodd" />
</svg>